<svg width="471" height="119" viewBox="0 0 471 119" fill="none" xmlns="http://www.w3.org/2000/svg">
<path d="M203.758 21.6917C191.41 21.7083 184.672 29.0324 184.689 41.8357L184.742 83.4463C184.758 96.2495 191.513 103.557 203.863 103.54C216.213 103.524 222.949 96.1995 222.932 83.3963L222.879 41.7857C222.862 28.9824 216.108 21.675 203.758 21.6917ZM203.849 92.1096C199.848 92.1152 197.328 89.9452 197.323 84.2298L197.267 41.0188C197.259 35.3035 199.773 33.1279 203.774 33.1223C207.775 33.1168 210.295 35.2868 210.304 41.0021L210.359 84.2131C210.368 89.9285 207.853 92.104 203.852 92.1096H203.849ZM166.209 72.838L166.223 84.2687C166.231 89.984 163.717 92.0457 159.716 92.0512C155.715 92.0568 153.197 90.0007 153.189 84.2854L153.133 41.0744C153.125 35.359 155.64 33.1835 159.641 33.1779C163.642 33.1724 166.162 35.3424 166.17 41.0577L166.181 49.6321L178.073 49.6182L178.062 41.844C178.045 29.0407 171.633 21.7333 159.285 21.7472C146.937 21.7639 140.544 29.088 140.561 41.8912L140.614 83.5018C140.63 96.3051 147.043 103.613 159.391 103.599C171.738 103.582 178.132 96.2579 178.115 83.4546L178.101 72.8241L166.209 72.8408V72.838ZM80.5539 38.5404L53.5498 65.6084C53.1802 65.9807 53.4442 66.6142 53.9665 66.6114L81.004 66.5753C81.3291 66.5753 81.593 66.3114 81.593 65.9863L81.5569 38.9516C81.5569 38.4265 80.9206 38.1653 80.5511 38.5376L80.5539 38.5404ZM116.719 86.3526L100.142 86.3748C100.025 86.3748 99.9282 86.472 99.9282 86.5887L99.9505 104.054C99.9505 104.171 99.856 104.268 99.7365 104.268L81.1651 104.293C81.0484 104.293 80.9512 104.199 80.9512 104.079L80.929 86.6137C80.929 86.497 80.8317 86.3998 80.715 86.3998L26.4484 86.4693C25.9705 86.4693 25.5843 86.0831 25.5843 85.6079L25.5648 69.6872C25.5648 69.6872 25.5648 69.6761 25.5648 69.6678C25.5537 69.5288 25.4148 67.6228 26.9374 66.0946L80.979 11.9308C81.0179 11.8919 81.0734 11.8669 81.129 11.8669L98.6918 11.8447C98.7196 11.8447 98.7474 11.8503 98.7752 11.8614C99.0058 11.9586 100.112 12.4976 100.112 13.9758L100.178 66.617C100.178 66.7337 100.276 66.8309 100.392 66.8309L116.691 66.8087C116.808 66.8087 116.905 66.7115 116.905 66.5948L116.838 15.0233C116.827 6.74896 110.048 -0.0111003 101.773 1.36844e-05L25.7927 0.100039C25.676 0.100039 25.5787 0.197286 25.5787 0.313983L25.6315 41.9135C25.6315 42.1024 25.8621 42.1997 25.9955 42.0635L56.8145 11.339C56.8534 11.3001 56.9089 11.2779 56.9645 11.2779L73.0242 11.2584C73.2131 11.2584 73.3103 11.4863 73.177 11.6224L23.0892 62.6493C23.0059 62.7327 22.8697 62.7354 22.7864 62.6493L13.3534 53.2414C13.3145 53.2025 13.2895 53.1469 13.2895 53.0913L13.2228 0.450128C13.2228 0.322318 13.1089 0.222293 12.9839 0.238963C6.02098 1.1253 0.527912 6.86009 0 13.9202V50.1545L0.0694622 104.157C0.0777976 111.362 5.22355 117.419 12.017 118.855H104.41C111.512 117.652 116.963 111.434 116.952 104.007L116.93 86.5721C116.93 86.4554 116.833 86.3581 116.716 86.3581L116.719 86.3526ZM410.138 22.3418L410.199 70.2401L397.218 22.3585L381.439 22.3779L381.542 102.398L392.861 102.384L392.786 44.4252L408.524 102.362L421.444 102.346L421.341 22.3251L410.135 22.339L410.138 22.3418ZM266.187 22.528L257.685 79.3536L248.349 22.5502L230.856 22.5724L230.959 102.593L241.937 102.579L241.864 45.9923L251.314 102.568L263.206 102.551L271.822 45.1532L271.897 102.54L283.789 102.523L283.686 22.503L266.193 22.5252L266.187 22.528ZM470.623 22.264L458.617 22.2807L449.059 58.7594L439.406 22.3057L426.259 22.3224L442.221 75.7999L442.254 102.321L454.833 102.304L454.799 75.7832L470.623 22.264ZM344.51 22.4252L331.807 102.462L343.354 102.448L345.508 87.928L360.945 87.9085L363.134 102.423L375.826 102.407L362.917 22.4029L344.51 22.4279V22.4252ZM347.097 77.0641L353.104 36.5899L359.217 77.0502L347.097 77.0669V77.0641ZM311.352 22.4668L292.83 22.4919L292.933 102.512L305.511 102.496L305.472 72.4296L311.418 72.4212C323.996 72.4046 330.162 65.425 330.145 52.6218L330.131 42.2191C330.115 29.4158 323.933 22.4502 311.354 22.4668H311.352ZM311.402 60.9906L305.456 60.9989L305.42 33.9059L311.365 33.8975C315.366 33.892 317.542 35.7174 317.55 41.4328L317.567 53.4359C317.575 59.1512 315.405 60.985 311.402 60.9878V60.9906Z" fill="#E50914"/>
</svg>
